<?xml version="1.0" standalone="no"?>
<!DOCTYPE svg PUBLIC "-//W3C//DTD SVG 20010904//EN"
 "http://www.w3.org/TR/2001/REC-SVG-20010904/DTD/svg10.dtd">
<svg version="1.0" xmlns="http://www.w3.org/2000/svg"
 width="260.000000pt" height="260.000000pt" viewBox="0 0 260.000000 260.000000"
 preserveAspectRatio="xMidYMid meet">
<metadata>
Created by potrace 1.11, written by Peter Selinger 2001-2013
</metadata>
<g transform="translate(0.000000,260.000000) scale(0.100000,-0.100000)"
fill="#000000" stroke="none">
<path d="M1030 1468 c-128 -299 -245 -568 -260 -598 -37 -73 -69 -106 -119
-121 -22 -7 -41 -18 -41 -26 0 -10 39 -13 195 -13 160 0 195 3 195 14 0 9 -16
16 -44 20 -63 10 -96 38 -96 83 0 33 31 120 87 246 l26 57 247 0 247 0 51
-124 c67 -161 73 -196 39 -230 -15 -15 -43 -28 -66 -32 -25 -4 -41 -12 -41
-20 0 -12 45 -14 250 -14 216 0 250 2 250 15 0 9 -9 15 -22 15 -43 0 -102 39
-135 87 -17 27 -139 303 -269 616 -131 312 -243 567 -250 567 -6 0 -116 -244
-244 -542z m258 92 c33 -80 81 -193 105 -252 l46 -108 -219 0 -218 0 105 243
c57 133 107 248 110 255 3 7 7 12 8 10 1 -2 30 -68 63 -148z"/>
</g>
</svg>
